<svg width="250" height="250" viewBox="0 0 250 250" fill="none" xmlns="http://www.w3.org/2000/svg">
<circle cx="125" cy="125" r="120" fill="#FED925" stroke="black" stroke-width="10"/>
<path d="M127.297 146.516V122.688H181.984V171.516C171.516 178.651 162.245 183.521 154.172 186.125C146.151 188.677 136.62 189.953 125.578 189.953C111.984 189.953 100.891 187.635 92.2969 183C83.7552 178.365 77.1146 171.464 72.375 162.297C67.6875 153.13 65.3438 142.609 65.3438 130.734C65.3438 118.234 67.9219 107.375 73.0781 98.1562C78.2344 88.8854 85.7865 81.8542 95.7344 77.0625C103.495 73.3646 113.938 71.5156 127.062 71.5156C139.719 71.5156 149.172 72.6615 155.422 74.9531C161.724 77.2448 166.932 80.8125 171.047 85.6562C175.214 90.4479 178.339 96.5417 180.422 103.938L146.281 110.031C144.875 105.708 142.479 102.401 139.094 100.109C135.76 97.8177 131.49 96.6719 126.281 96.6719C118.521 96.6719 112.323 99.3802 107.688 104.797C103.104 110.161 100.812 118.677 100.812 130.344C100.812 142.74 103.13 151.594 107.766 156.906C112.453 162.219 118.964 164.875 127.297 164.875C131.255 164.875 135.031 164.302 138.625 163.156C142.219 162.01 146.333 160.057 150.969 157.297V146.516H127.297Z" fill="black"/>
</svg>
