<svg width="63" height="63" viewBox="0 0 63 63" fill="none" xmlns="http://www.w3.org/2000/svg">
<g opacity="0.5">
<path d="M61.5744 35.4008L60.8464 35.3358L60.9958 33.6484L61.7239 33.7134L61.5744 35.4008Z" fill="black"/>
<path d="M59.5063 37.2577L63 38.123L62.7677 39.0688L61.4371 38.7392L61.4337 38.7529C61.514 38.8091 61.583 38.8795 61.6406 38.9641C61.6994 39.0489 61.7389 39.146 61.7591 39.2552C61.7805 39.3647 61.7751 39.4845 61.7432 39.6147C61.7005 39.7883 61.6139 39.942 61.4833 40.0756C61.3525 40.2104 61.1761 40.3025 60.9541 40.3517C60.7318 40.402 60.4625 40.388 60.1464 40.3097C59.8439 40.2348 59.6047 40.1253 59.429 39.9812C59.253 39.8383 59.1355 39.6759 59.0764 39.494C59.017 39.3133 59.0103 39.1293 59.0564 38.942C59.0867 38.8186 59.1336 38.7133 59.1973 38.6261C59.2618 38.5403 59.3372 38.4717 59.4234 38.4204C59.5104 38.3705 59.6028 38.3382 59.7005 38.3236L59.7056 38.3031L59.2757 38.1966L59.5063 37.2577ZM60.5892 38.5074C60.4618 38.4758 60.3474 38.4651 60.246 38.4751C60.1455 38.4865 60.062 38.5168 59.9957 38.5658C59.9302 38.6162 59.8868 38.6848 59.8655 38.7716C59.8442 38.8584 59.8505 38.9382 59.8846 39.0108C59.9195 39.0849 59.979 39.1493 60.0633 39.2041C60.1484 39.2603 60.2558 39.3045 60.3854 39.3366C60.5151 39.3687 60.63 39.3796 60.7303 39.3693C60.8314 39.3604 60.914 39.3312 60.9781 39.2816C61.043 39.2335 61.0861 39.166 61.1074 39.0792C61.1287 38.9924 61.1221 38.9114 61.0875 38.8362C61.0537 38.7624 60.9944 38.6968 60.9096 38.6395C60.8256 38.5835 60.7188 38.5395 60.5892 38.5074Z" fill="black"/>
<path d="M57.5377 40.6776C57.5768 40.5729 57.6223 40.4763 57.6741 40.3878C57.7249 40.2989 57.7773 40.2238 57.8315 40.1625L58.4023 40.6037C58.348 40.6687 58.3055 40.7306 58.2747 40.7894C58.2436 40.8493 58.228 40.9043 58.228 40.9546C58.2276 41.0059 58.2467 41.0502 58.2854 41.0874L58.324 41.1246L61.2961 41.2266L60.9405 42.1782L59.037 41.9285L59.0271 41.9549L60.6219 43.0307L60.2638 43.9889L57.8721 42.0324C57.7502 41.9337 57.6502 41.8194 57.5724 41.6895C57.493 41.5604 57.4476 41.4126 57.436 41.2461C57.4243 41.0796 57.4583 40.8901 57.5377 40.6776Z" fill="black"/>
<path d="M59.3559 46.2401L60.0351 46.6396L58.454 49.3498L57.7748 48.9502L58.3219 48.0124L55.8961 46.5856L56.3829 45.7512L58.8087 47.178L59.3559 46.2401Z" fill="black"/>
<path d="M54.0142 47.6343C54.0813 47.5452 54.1523 47.4656 54.227 47.3955C54.3009 47.3247 54.3724 47.2677 54.4417 47.2244L54.8641 47.8103C54.7936 47.8571 54.7354 47.9043 54.6893 47.9519C54.6425 48.0004 54.6119 48.0488 54.5977 48.097C54.5828 48.1461 54.5886 48.194 54.6151 48.2407L54.6416 48.2873L57.4624 49.2334L56.8521 50.0442L55.0978 49.2615L55.0808 49.2841L56.3054 50.7706L55.6909 51.5871L53.9515 49.0287C53.8625 48.8992 53.799 48.7611 53.7611 48.6144C53.7216 48.468 53.7198 48.3133 53.7558 48.1504C53.7918 47.9875 53.8779 47.8155 54.0142 47.6343Z" fill="black"/>
<path d="M55.1357 53.5748L52.4562 51.1627L53.1037 50.4375L55.7833 52.8496L55.1357 53.5748Z" fill="black"/>
<path d="M51.2241 52.3368C51.4337 52.1382 51.6522 52.0073 51.8794 51.944C52.1066 51.8824 52.3323 51.8886 52.5564 51.9625C52.7804 52.0381 52.9921 52.182 53.1915 52.3942C53.3829 52.5978 53.5092 52.8146 53.5705 53.0443C53.6318 53.2741 53.6277 53.502 53.5581 53.728C53.4886 53.9539 53.3525 54.163 53.1497 54.3551C53.0014 54.4955 52.8455 54.5996 52.6819 54.6672C52.5184 54.7348 52.3526 54.7649 52.1846 54.7575C52.0174 54.751 51.852 54.707 51.6887 54.6257C51.5253 54.5444 51.37 54.4254 51.2229 54.2689L51.0685 54.1046L52.8221 52.4433L53.1887 52.8335L52.0844 53.8796C52.1383 53.9353 52.1995 53.9712 52.2678 53.9873C52.336 54.0051 52.4049 54.0038 52.4742 53.9834C52.5436 53.9646 52.6076 53.9274 52.6664 53.8717C52.7235 53.8176 52.7643 53.7555 52.7887 53.6855C52.8139 53.6164 52.8209 53.5467 52.8096 53.4764C52.7976 53.407 52.7654 53.3429 52.7133 53.2839L52.3177 52.863C52.2582 52.7997 52.192 52.7557 52.1189 52.7311C52.0459 52.7065 51.9714 52.7035 51.8954 52.7221C51.8195 52.7407 51.7466 52.783 51.6767 52.8492C51.6281 52.8953 51.5902 52.9441 51.5631 52.9957C51.535 53.0481 51.5186 53.1009 51.5137 53.154C51.5097 53.208 51.5181 53.2598 51.5391 53.3095L50.8949 53.9198C50.7884 53.7619 50.7291 53.5933 50.7168 53.4141C50.7054 53.2357 50.7418 53.0541 50.8258 52.8693C50.9099 52.6862 51.0426 52.5087 51.2241 52.3368Z" fill="black"/>
<path d="M49.7495 53.7448L51.4003 55.8891L50.6552 56.4675L50.3413 56.0598L50.3191 56.0771C50.3962 56.2581 50.4195 56.4162 50.3889 56.5515C50.3574 56.6874 50.2846 56.7997 50.1706 56.8882C50.1373 56.9141 50.1022 56.9368 50.0655 56.9564C50.0285 56.9776 49.9912 56.9955 49.9534 57.0099L49.4472 56.3524C49.4952 56.3359 49.5496 56.3094 49.6102 56.2727C49.6708 56.2361 49.721 56.2023 49.7609 56.1714C49.836 56.1131 49.8904 56.0434 49.9241 55.9622C49.9576 55.8826 49.9679 55.7988 49.9549 55.7108C49.9426 55.6237 49.9049 55.5392 49.8419 55.4573L48.9821 54.3405L49.7495 53.7448Z" fill="black"/>
<path d="M46.6189 59.1306L46.2681 58.519L47.809 57.6279L48.1598 58.2396L46.6189 59.1306ZM48.1842 58.9748L47.3437 59.4609L46.107 57.3049C46.0883 57.2723 46.0669 57.248 46.0429 57.232C46.0194 57.2171 45.9928 57.2107 45.9631 57.213C45.9339 57.2163 45.901 57.2285 45.8645 57.2497C45.8391 57.2644 45.8114 57.2844 45.7814 57.3099C45.7504 57.336 45.7279 57.3558 45.714 57.3692L45.2519 56.8464C45.2831 56.8135 45.329 56.7686 45.3896 56.7118C45.4493 56.6556 45.5254 56.5973 45.6179 56.537C45.8049 56.4153 45.9782 56.3416 46.1378 56.3158C46.298 56.291 46.4424 56.3141 46.5709 56.385C46.6995 56.4559 46.8098 56.574 46.9019 56.7393L48.1842 58.9748Z" fill="black"/>
<path d="M44.3725 58.9421L43.7499 57.5516L44.6345 57.1522L46.1104 60.4482L45.2578 60.8331L44.6784 59.5392L44.6527 59.5507C44.6678 59.7335 44.6304 59.8981 44.5405 60.0445C44.4511 60.1919 44.3156 60.3066 44.134 60.3886C43.9599 60.4672 43.7909 60.4957 43.6272 60.4742C43.4623 60.4532 43.3134 60.3888 43.1805 60.2812C43.0464 60.174 42.9396 60.03 42.8599 59.8493L42.1537 58.2721L43.0383 57.8728L43.661 59.2633C43.7147 59.3861 43.7881 59.4684 43.8813 59.5101C43.9734 59.5524 44.0761 59.5479 44.1894 59.4968C44.2609 59.4645 44.3168 59.42 44.3568 59.3632C44.3963 59.3079 44.4178 59.2441 44.4213 59.1715C44.4242 59.1006 44.4079 59.0241 44.3725 58.9421Z" fill="black"/>
<path d="M40.3476 58.8383C40.6226 58.7521 40.8761 58.7306 41.1079 58.7738C41.339 58.8185 41.5391 58.9234 41.7082 59.0886C41.8766 59.2552 42.004 59.4777 42.0906 59.7562C42.1737 60.0235 42.1926 60.2739 42.1474 60.5074C42.1022 60.7409 41.999 60.944 41.8379 61.1164C41.6767 61.2889 41.4631 61.4169 41.197 61.5003C41.0024 61.5612 40.8169 61.5861 40.6404 61.5749C40.4639 61.5636 40.3017 61.5177 40.154 61.437C40.0065 61.3575 39.8772 61.2453 39.7658 61.1002C39.6545 60.9552 39.5669 60.7799 39.503 60.5744L39.436 60.3588L41.7372 59.6377L41.8964 60.1498L40.4472 60.6039C40.4713 60.6777 40.5106 60.7368 40.565 60.7814C40.6185 60.8275 40.681 60.8566 40.7522 60.8688C40.8227 60.8824 40.8966 60.8772 40.9737 60.853C41.0486 60.8295 41.1123 60.7917 41.1648 60.7395C41.2177 60.6884 41.2544 60.6289 41.275 60.5608C41.2944 60.4931 41.2936 60.4213 41.2724 60.3453L41.1007 59.7928C41.0749 59.7097 41.0345 59.641 40.9796 59.5868C40.9247 59.5325 40.859 59.497 40.7827 59.4802C40.7063 59.4635 40.6223 59.4695 40.5306 59.4982C40.4668 59.5182 40.4115 59.5454 40.3645 59.5798C40.3164 59.6146 40.2786 59.6548 40.2511 59.7004C40.2239 59.7471 40.2088 59.7975 40.2059 59.8513L39.3606 60.1162C39.3338 59.9274 39.3541 59.7498 39.4214 59.5833C39.489 59.4179 39.6009 59.2707 39.7571 59.1417C39.9126 59.0141 40.1094 58.913 40.3476 58.8383Z" fill="black"/>
<path d="M35.7374 59.8945C36.0276 59.855 36.2838 59.8789 36.506 59.9661C36.7284 60.0546 36.9087 60.195 37.047 60.3875C37.1855 60.5812 37.2733 60.8156 37.3104 61.0907C37.3476 61.3658 37.3251 61.6146 37.2429 61.8371C37.1608 62.0608 37.0242 62.2444 36.8332 62.388C36.6424 62.5327 36.4019 62.6248 36.1117 62.6644C35.8494 62.7001 35.616 62.6832 35.4115 62.6137C35.2061 62.5455 35.0388 62.4318 34.9098 62.2725C34.7808 62.1143 34.7 61.9188 34.6674 61.6858L35.5588 61.5643C35.5906 61.7037 35.6457 61.8054 35.7241 61.8695C35.8015 61.9349 35.8936 61.9604 36.0004 61.9458C36.084 61.9344 36.1538 61.9 36.2099 61.8425C36.2661 61.7862 36.305 61.7067 36.3266 61.604C36.3483 61.5025 36.3493 61.3783 36.3294 61.2314C36.3096 61.0845 36.2756 60.9645 36.2276 60.8713C36.1797 60.7793 36.1211 60.7131 36.0518 60.6727C35.9827 60.6334 35.9063 60.6195 35.8227 60.6309C35.7519 60.6405 35.6915 60.6654 35.6413 60.7054C35.5913 60.7467 35.5538 60.8016 35.5288 60.8703C35.5028 60.9404 35.4927 61.0225 35.4983 61.1167L34.6069 61.2381C34.5784 61.001 34.6045 60.7873 34.6852 60.597C34.766 60.408 34.8957 60.2526 35.0743 60.1309C35.2518 60.0094 35.4728 59.9306 35.7374 59.8945Z" fill="black"/>
<path d="M33.7141 60.1714L33.8079 62.8803L32.8667 62.9131L32.8489 62.3981L32.8208 62.3991C32.7782 62.5913 32.7052 62.7333 32.6017 62.8252C32.497 62.9172 32.3727 62.9656 32.2287 62.9707C32.1866 62.9721 32.1449 62.9701 32.1037 62.9644C32.0614 62.96 32.0207 62.9526 31.9816 62.9422L31.9529 62.1116C32.0014 62.1263 32.061 62.1366 32.1315 62.1424C32.202 62.1482 32.2625 62.1502 32.3128 62.1484C32.4076 62.1451 32.4923 62.1204 32.5669 62.0742C32.6404 62.0293 32.6974 61.9673 32.738 61.8882C32.7787 61.8102 32.7972 61.7195 32.7937 61.6161L32.7448 60.2052L33.7141 60.1714Z" fill="black"/>
<path d="M29.9721 60.1146C30.2596 60.1347 30.5035 60.2071 30.7039 60.332C30.903 60.4579 31.0514 60.6286 31.1492 60.8442C31.2457 61.0609 31.2839 61.3147 31.2638 61.6058C31.2444 61.8851 31.1714 62.1253 31.0448 62.3263C30.9181 62.5274 30.7485 62.6789 30.536 62.7808C30.3234 62.8827 30.0781 62.9239 29.8 62.9045C29.5967 62.8903 29.4149 62.8458 29.2545 62.7709C29.0941 62.696 28.9597 62.5941 28.8512 62.465C28.7427 62.3372 28.6628 62.1853 28.6115 62.0096C28.5603 61.8338 28.5421 61.6386 28.557 61.4238L28.5726 61.1985L30.9774 61.3664L30.9403 61.9016L29.4259 61.7958C29.4217 61.8734 29.4369 61.9428 29.4714 62.0042C29.5046 62.0667 29.5523 62.1166 29.6142 62.1539C29.675 62.1924 29.7457 62.2144 29.8263 62.22C29.9046 62.2255 29.9776 62.2135 30.0454 62.184C30.1131 62.1557 30.1689 62.1136 30.2127 62.0577C30.2553 62.0017 30.2805 61.9345 30.2883 61.856L30.3283 61.2786C30.3343 61.1918 30.3216 61.1131 30.2901 61.0425C30.2585 60.9719 30.2102 60.9148 30.1452 60.8714C30.0801 60.8279 29.9996 60.8028 29.9038 60.7962C29.8372 60.7915 29.7758 60.7966 29.7196 60.8116C29.6622 60.8264 29.6124 60.8501 29.5702 60.8825C29.528 60.9161 29.4957 60.9575 29.4736 61.0067L28.5902 60.945C28.6336 60.7593 28.7167 60.6012 28.8397 60.4706C28.9625 60.3413 29.1201 60.2449 29.3123 60.1817C29.5033 60.1196 29.7232 60.0972 29.9721 60.1146Z" fill="black"/>
<path d="M27.2023 59.8106C27.3718 59.841 27.5167 59.8957 27.6371 59.9747C27.7561 60.0546 27.8423 60.1586 27.8957 60.2865C27.9491 60.4144 27.96 60.5669 27.9284 60.7441C27.9024 60.89 27.8555 61.01 27.7875 61.1042C27.7194 61.1995 27.635 61.2722 27.5345 61.3223C27.4339 61.3723 27.3218 61.4042 27.198 61.4178C27.073 61.4312 26.941 61.4308 26.8019 61.4166C26.6511 61.4014 26.5293 61.3939 26.4365 61.394C26.3423 61.395 26.2724 61.4069 26.2266 61.4298C26.1807 61.4538 26.1532 61.4913 26.1441 61.5422L26.1429 61.5492C26.1305 61.6187 26.1475 61.6767 26.194 61.7233C26.2404 61.7699 26.3051 61.8006 26.3882 61.8155C26.4793 61.8319 26.5572 61.825 26.6221 61.7948C26.6856 61.7656 26.7305 61.7109 26.7566 61.6307L27.6353 61.7885C27.5949 61.9486 27.5169 62.0888 27.4015 62.2091C27.2847 62.3303 27.1308 62.4162 26.9397 62.4667C26.7484 62.5184 26.5208 62.5206 26.2567 62.4731C26.0665 62.439 25.8999 62.3857 25.7569 62.3134C25.6136 62.2423 25.4961 62.1573 25.4043 62.0583C25.3122 61.9605 25.248 61.8534 25.2117 61.7369C25.1739 61.6213 25.1661 61.5016 25.1882 61.3777L25.5137 59.5503L26.4062 59.7106L26.3393 60.0858L26.3601 60.0895C26.4309 59.9995 26.5098 59.9306 26.5968 59.8829C26.6827 59.835 26.7765 59.8058 26.8783 59.7954C26.979 59.7848 27.087 59.7899 27.2023 59.8106ZM26.7833 60.3592C26.7106 60.3461 26.6399 60.3489 26.5711 60.3677C26.5012 60.3862 26.441 60.4202 26.3905 60.4697C26.3401 60.5192 26.3076 60.5845 26.2932 60.6655L26.2536 60.8879C26.2808 60.882 26.3096 60.877 26.3401 60.8729C26.3694 60.8686 26.401 60.8653 26.4347 60.863C26.4673 60.8605 26.502 60.859 26.539 60.8585C26.5749 60.8577 26.6123 60.8579 26.6514 60.8589C26.7273 60.8606 26.7912 60.8524 26.8432 60.8342C26.8939 60.817 26.9341 60.7914 26.964 60.7573C26.9925 60.7242 27.0109 60.6845 27.0191 60.6381C27.0324 60.564 27.0165 60.5026 26.9716 60.4539C26.9268 60.4052 26.864 60.3736 26.7833 60.3592Z" fill="black"/>
<path d="M22.8618 61.6245L23.0508 60.9446L24.7634 61.4247L24.5744 62.1045L22.8618 61.6245ZM24.0688 62.637L23.1346 62.3752L23.8009 59.9787C23.811 59.9424 23.8133 59.9101 23.8078 59.8817C23.802 59.8544 23.7879 59.8309 23.7654 59.8112C23.7426 59.7926 23.7109 59.7776 23.6703 59.7662C23.6421 59.7583 23.6084 59.7525 23.5693 59.7489C23.529 59.7449 23.4993 59.7427 23.4799 59.7422L23.5279 59.0447C23.5731 59.044 23.6372 59.0454 23.72 59.0491C23.8018 59.0525 23.8965 59.0662 24.0041 59.0903C24.2216 59.139 24.3954 59.2116 24.5256 59.3079C24.6553 59.4053 24.74 59.525 24.7797 59.6668C24.8193 59.8085 24.8126 59.9703 24.7597 60.1521L24.0688 62.637Z" fill="black"/>
<path d="M21.6834 58.2986C21.956 58.4061 22.1682 58.5522 22.3199 58.7371C22.4712 58.9231 22.5606 59.134 22.588 59.3697C22.6149 59.6065 22.5779 59.8542 22.4769 60.1126C22.3759 60.3711 22.2355 60.5773 22.0557 60.7314C21.8755 60.8866 21.6672 60.9802 21.4307 61.0121C21.1938 61.0452 20.9391 61.008 20.6665 60.9006C20.3939 60.7931 20.1819 60.6464 20.0306 60.4605C19.8789 60.2756 19.7896 60.0647 19.7626 59.8279C19.7352 59.5921 19.772 59.345 19.873 59.0866C19.974 58.8281 20.1146 58.6213 20.2948 58.4661C20.4746 58.312 20.6829 58.2184 20.9198 58.1854C21.1563 58.1535 21.4108 58.1912 21.6834 58.2986ZM21.4149 58.9663C21.3386 58.9362 21.2626 58.9359 21.1869 58.9655C21.1111 58.995 21.0394 59.0514 20.9716 59.1347C20.9038 59.2179 20.8443 59.3252 20.7929 59.4567C20.7411 59.5892 20.7121 59.7085 20.7058 59.8147C20.6991 59.922 20.7135 60.0124 20.749 60.0857C20.7845 60.1591 20.8404 60.2109 20.9167 60.2409C20.9974 60.2727 21.0767 60.2743 21.1546 60.2456C21.2326 60.2169 21.3054 60.1609 21.3732 60.0777C21.4405 59.9955 21.5001 59.8882 21.5518 59.7557C21.6032 59.6243 21.6322 59.5049 21.6389 59.3976C21.6456 59.2903 21.6302 59.1995 21.5925 59.1253C21.5548 59.0511 21.4956 58.998 21.4149 58.9663Z" fill="black"/>
<path d="M19.7816 57.5543L18.5483 59.9652L17.7105 59.5331L17.945 59.0748L17.92 59.0619C17.7895 59.2088 17.6568 59.2971 17.5218 59.3267C17.3858 59.3557 17.2537 59.3372 17.1256 59.2711C17.088 59.2517 17.0527 59.2295 17.0194 59.2044C16.9846 59.1799 16.9526 59.1535 16.9236 59.1253L17.3018 58.386C17.337 58.4227 17.384 58.4608 17.4428 58.5004C17.5016 58.5399 17.5534 58.5713 17.5982 58.5944C17.6826 58.6379 17.7685 58.6578 17.8561 58.654C17.942 58.6507 18.0219 58.6245 18.0958 58.5753C18.1692 58.5272 18.2294 58.4571 18.2765 58.365L18.9189 57.1093L19.7816 57.5543Z" fill="black"/>
<path d="M13.9974 56.1819L14.4144 55.579L15.8 56.545L15.383 57.1479L13.9974 56.1819Z" fill="black"/>
<path d="M13.4487 53.4735L10.9694 56.0928L10.2663 55.4218L11.2106 54.4242L11.2004 54.4145C11.1119 54.4567 11.0169 54.482 10.9152 54.4904C10.8126 54.4997 10.7091 54.4861 10.6046 54.4497C10.4993 54.4141 10.3983 54.3501 10.3015 54.2578C10.1724 54.1346 10.0824 53.983 10.0314 53.8029C9.97959 53.622 9.98738 53.4225 10.0548 53.2045C10.1213 52.9856 10.2668 52.7577 10.4911 52.5207C10.7058 52.2939 10.919 52.1395 11.1307 52.0575C11.3416 51.9748 11.5403 51.9526 11.7269 51.9911C11.9126 52.0288 12.0751 52.1141 12.2144 52.247C12.3061 52.3345 12.3739 52.4276 12.4179 52.5263C12.4602 52.6251 12.4821 52.7248 12.4839 52.8254C12.4839 52.9261 12.4661 53.0227 12.4303 53.1151L12.4456 53.1297L12.7506 52.8074L13.4487 53.4735ZM11.8311 53.7993C11.9215 53.7039 11.9875 53.6094 12.029 53.516C12.0689 53.4226 12.0841 53.3349 12.0746 53.2527C12.0634 53.1706 12.0255 53.0988 11.961 53.0372C11.8964 52.9756 11.8243 52.9417 11.7446 52.9354C11.6632 52.9292 11.578 52.9493 11.4888 52.9956C11.398 53.042 11.3066 53.1139 11.2146 53.2111C11.1226 53.3083 11.0563 53.4031 11.0155 53.4957C10.9731 53.5883 10.9575 53.6748 10.9686 53.7552C10.9781 53.8357 11.0151 53.9067 11.0797 53.9683C11.1442 54.0299 11.2176 54.0642 11.2998 54.0713C11.3804 54.0784 11.4665 54.0591 11.5581 54.0135C11.6481 53.9679 11.7391 53.8965 11.8311 53.7993Z" fill="black"/>
<path d="M11.4563 50.051C11.5275 50.1369 11.5886 50.2243 11.6396 50.3134C11.6915 50.4016 11.7305 50.4846 11.7568 50.5621L11.0925 50.8421C11.0632 50.7626 11.0306 50.6948 10.9949 50.639C10.9585 50.5822 10.9185 50.5414 10.875 50.5165C10.8308 50.4907 10.783 50.4855 10.7317 50.5009L10.6804 50.5162L9.12207 53.0596L8.47425 52.2787L9.63191 50.741L9.61392 50.7193L7.89391 51.5791L7.2416 50.7928L10.1181 49.673C10.2639 49.6153 10.4123 49.5846 10.5632 49.5809C10.7142 49.5755 10.8646 49.6089 11.0145 49.6811C11.1643 49.7533 11.3116 49.8766 11.4563 50.051Z" fill="black"/>
<path d="M5.7612 48.9199L5.08051 49.3169L3.50935 46.601L4.19005 46.204L4.73377 47.1439L7.16482 45.726L7.64852 46.5622L5.21747 47.98L5.7612 48.9199Z" fill="black"/>
<path d="M7.18544 43.5614C7.22956 43.664 7.26353 43.7653 7.28734 43.8651C7.31223 43.9645 7.32632 44.0552 7.32962 44.137L6.61368 44.2168C6.60791 44.1321 6.59578 44.058 6.5773 43.9942C6.55836 43.9294 6.53153 43.8789 6.49682 43.8427C6.46165 43.8054 6.4173 43.7868 6.36377 43.787L6.31024 43.7871L4.099 45.7837L3.69772 44.8506L5.2413 43.7047L5.23016 43.6788L3.33824 44.0146L2.93417 43.075L6.00853 42.8185C6.16462 42.8046 6.31555 42.8174 6.46132 42.8567C6.6077 42.8944 6.74258 42.9692 6.86594 43.081C6.9893 43.1928 7.0958 43.353 7.18544 43.5614Z" fill="black"/>
<path d="M1.49951 41.6551L4.90942 40.501L5.2193 41.424L1.80939 42.5781L1.49951 41.6551Z" fill="black"/>
<path d="M4.50842 38.8869C4.57745 39.1679 4.58348 39.4233 4.52653 39.653C4.46816 39.882 4.35179 40.0762 4.17744 40.2357C4.00166 40.3943 3.77275 40.5086 3.49071 40.5784C3.22005 40.6455 2.97003 40.6493 2.74066 40.5897C2.51129 40.5302 2.31575 40.4145 2.15406 40.2425C1.99236 40.0705 1.87812 39.8486 1.81134 39.5767C1.76251 39.378 1.74902 39.1905 1.77087 39.0142C1.79271 38.838 1.84818 38.6782 1.93725 38.535C2.02519 38.3921 2.14461 38.2692 2.29549 38.1664C2.44638 38.0636 2.62588 37.9864 2.834 37.9349L3.05236 37.8808L3.62985 40.2314L3.11126 40.3598L2.74759 38.8796C2.67281 38.8993 2.61162 38.935 2.56402 38.9868C2.515 39.0377 2.48228 39.0985 2.46587 39.1693C2.44804 39.2391 2.44881 39.3134 2.46817 39.3922C2.48697 39.4688 2.52072 39.5349 2.56942 39.5907C2.61697 39.6468 2.67395 39.6872 2.74036 39.712C2.80648 39.7356 2.87792 39.7391 2.95468 39.7225L3.51421 39.5839C3.59837 39.5631 3.66908 39.5268 3.72634 39.475C3.7836 39.4233 3.82286 39.3596 3.84411 39.2841C3.86537 39.2085 3.86449 39.1239 3.84148 39.0303C3.82549 38.9652 3.8018 38.908 3.77041 38.8589C3.73875 38.8085 3.70108 38.7682 3.65743 38.7378C3.61263 38.7077 3.56354 38.6896 3.51014 38.6834L3.29801 37.8199C3.48726 37.8046 3.6626 37.8356 3.82401 37.9132C3.98429 37.991 4.12384 38.1122 4.24266 38.2766C4.36006 38.4402 4.44865 38.6436 4.50842 38.8869Z" fill="black"/>
<path d="M4.00685 36.8593L1.334 37.2339L1.20378 36.2971L1.7119 36.2259L1.70801 36.198C1.51328 36.1754 1.36503 36.1171 1.26329 36.0233C1.16138 35.9283 1.10047 35.8091 1.08055 35.6658C1.07472 35.6239 1.07245 35.582 1.07374 35.5403C1.07371 35.4975 1.07682 35.4561 1.08308 35.416L1.90268 35.3012C1.89308 35.3512 1.88908 35.4118 1.89068 35.4828C1.89227 35.5539 1.89656 35.6144 1.90352 35.6645C1.91664 35.7589 1.94992 35.841 2.00337 35.9107C2.0555 35.9794 2.12285 36.0299 2.20541 36.0623C2.2868 36.0949 2.37855 36.104 2.48064 36.0897L3.87275 35.8946L4.00685 36.8593Z" fill="black"/>
<path d="M0.896758 31.3099H1.59956V33.0957H0.896758L0.896758 31.3099ZM0.250183 32.7498L0.250183 31.7757H2.72755C2.76503 31.7757 2.79666 31.7693 2.82243 31.7563C2.84703 31.7434 2.86577 31.7234 2.87865 31.6963C2.89037 31.6693 2.89622 31.6346 2.89622 31.5922C2.89622 31.5628 2.89271 31.5287 2.88568 31.4899C2.87865 31.4499 2.8728 31.4205 2.86811 31.4016L3.54983 31.2605C3.56271 31.304 3.57852 31.3663 3.59726 31.4475C3.61601 31.5275 3.6283 31.6228 3.63416 31.7334C3.64587 31.9569 3.62303 32.1446 3.56564 32.2963C3.50707 32.4481 3.41512 32.5622 3.28979 32.6387C3.16446 32.7151 3.0075 32.7522 2.81891 32.7498L0.250183 32.7498Z" fill="black"/>
<path d="M2.16401 29.5537L3.67501 29.7005L3.58164 30.67L0 30.3223L0.0899915 29.3878L1.49606 29.5243L1.49877 29.4962C1.33325 29.4187 1.20951 29.3045 1.12755 29.1535C1.04442 29.0024 1.01245 28.8273 1.03162 28.6283C1.05 28.4374 1.1091 28.2759 1.2089 28.1438C1.30883 28.0105 1.43829 27.9125 1.5973 27.8499C1.75642 27.7862 1.93386 27.7644 2.12962 27.7846L3.84349 27.951L3.75012 28.9206L2.23911 28.7739C2.10631 28.7598 1.99875 28.783 1.91643 28.8436C1.83422 28.903 1.78713 28.9947 1.77518 29.1189C1.76762 29.1973 1.77846 29.2681 1.80769 29.3312C1.83586 29.3931 1.88043 29.4435 1.94139 29.4825C2.00131 29.5202 2.07551 29.544 2.16401 29.5537Z" fill="black"/>
<path d="M4.24858 26.0781C4.18703 26.3608 4.08021 26.5926 3.9281 26.7736C3.77511 26.9532 3.58533 27.0759 3.35876 27.1418C3.13131 27.2062 2.87568 27.2073 2.59189 27.145C2.31953 27.0853 2.09352 26.9779 1.91385 26.8228C1.73418 26.6678 1.60959 26.4773 1.54009 26.2513C1.47058 26.0253 1.4656 25.7755 1.52515 25.502C1.56868 25.302 1.63898 25.1278 1.73605 24.9793C1.83312 24.8308 1.9531 24.7121 2.09599 24.623C2.23773 24.5337 2.39889 24.4763 2.57947 24.4509C2.76006 24.4255 2.95505 24.4358 3.16447 24.4818L3.38418 24.53L2.86928 26.8952L2.34747 26.7807L2.67172 25.2912C2.59594 25.2758 2.52532 25.2808 2.45984 25.3062C2.39348 25.3301 2.33739 25.3702 2.29159 25.4264C2.24489 25.4812 2.21291 25.5482 2.19565 25.6275C2.17889 25.7045 2.18009 25.7788 2.19927 25.8505C2.2173 25.9219 2.25067 25.9834 2.29938 26.035C2.34834 26.0855 2.4109 26.1203 2.48707 26.1394L3.05008 26.263C3.13476 26.2816 3.21417 26.2803 3.28829 26.2593C3.36242 26.2382 3.42562 26.1985 3.4779 26.1401C3.53017 26.0817 3.56657 26.0054 3.58708 25.9112C3.60134 25.8457 3.6052 25.7839 3.59865 25.7259C3.59235 25.6667 3.57629 25.6138 3.55046 25.5672C3.52349 25.5203 3.48741 25.4823 3.44221 25.4531L3.63135 24.5843C3.80794 24.6543 3.95161 24.7599 4.06238 24.901C4.17199 25.0419 4.24398 25.2124 4.27833 25.4126C4.31179 25.6115 4.30187 25.8333 4.24858 26.0781Z" fill="black"/>
<path d="M5.6141 21.5179C5.50404 21.7904 5.3561 22.0018 5.17027 22.1521C4.98336 22.302 4.77238 22.3894 4.53733 22.4143C4.3012 22.4387 4.05503 22.3988 3.79885 22.2945C3.54266 22.1902 3.33886 22.047 3.18745 21.8648C3.03496 21.6821 2.94416 21.4718 2.91505 21.234C2.88486 20.9958 2.92479 20.7404 3.03484 20.4678C3.13433 20.2215 3.2649 20.0264 3.42655 19.8828C3.58756 19.7376 3.76896 19.6484 3.97077 19.615C4.17149 19.5812 4.38063 19.6079 4.59818 19.6952L4.26009 20.5325C4.12389 20.491 4.00862 20.4885 3.91425 20.525C3.81925 20.56 3.75149 20.6276 3.71099 20.7279C3.67929 20.8064 3.67436 20.8843 3.69618 20.9618C3.71691 21.0387 3.76627 21.1122 3.84425 21.182C3.92114 21.2514 4.02798 21.3139 4.16476 21.3696C4.30154 21.4253 4.42212 21.4553 4.52652 21.4597C4.62982 21.4637 4.71616 21.4455 4.78552 21.4052C4.8538 21.3645 4.90379 21.3049 4.93549 21.2264C4.96234 21.1599 4.97091 21.0948 4.96121 21.0312C4.95042 20.9671 4.92155 20.9072 4.87462 20.8512C4.82703 20.7938 4.76114 20.7441 4.67694 20.7022L5.01503 19.8649C5.23407 19.9579 5.40574 20.0868 5.53004 20.2517C5.65325 20.4161 5.72305 20.6064 5.73943 20.8225C5.75624 21.0375 5.71447 21.2693 5.6141 21.5179Z" fill="black"/>
<path d="M6.35308 19.6554L3.9662 18.3905L4.40586 17.554L4.85962 17.7945L4.87274 17.7695C4.72788 17.6369 4.64149 17.5027 4.61355 17.3668C4.58616 17.2299 4.6061 17.0975 4.67336 16.9695C4.69305 16.9321 4.71557 16.8968 4.74093 16.8637C4.76579 16.829 4.79243 16.7972 4.82083 16.7684L5.55275 17.1562C5.51582 17.1912 5.47733 17.238 5.43727 17.2965C5.39721 17.3551 5.36542 17.4068 5.3419 17.4515C5.29761 17.5358 5.27685 17.6219 5.27964 17.7098C5.28194 17.7962 5.30716 17.8767 5.3553 17.9514C5.4024 18.0256 5.47154 18.0868 5.5627 18.1352L6.80587 18.7939L6.35308 19.6554Z" fill="black"/>
<path d="M8.2436 16.4388C8.08357 16.6794 7.89988 16.8562 7.6925 16.9689C7.48481 17.08 7.26352 17.1248 7.02862 17.1031C6.79341 17.0798 6.55499 16.9871 6.31337 16.8252C6.0815 16.6697 5.91007 16.4869 5.7991 16.2768C5.68813 16.0666 5.64134 15.8436 5.65873 15.6077C5.67611 15.3719 5.76221 15.1375 5.91703 14.9047C6.03022 14.7344 6.15898 14.598 6.30331 14.4953C6.44764 14.3926 6.60251 14.326 6.76791 14.2954C6.93234 14.2642 7.10323 14.2699 7.2806 14.3124C7.45797 14.3549 7.6358 14.4359 7.81409 14.5554L8.00115 14.6808L6.66241 16.6942L6.21815 16.3964L7.0612 15.1285C6.99625 15.0864 6.92869 15.0651 6.85851 15.0648C6.788 15.0628 6.72122 15.0795 6.65816 15.115C6.59478 15.1489 6.54065 15.1996 6.49577 15.2671C6.45218 15.3327 6.4263 15.4023 6.41813 15.4761C6.40898 15.5491 6.4177 15.6186 6.4443 15.6845C6.47155 15.7495 6.51716 15.8048 6.58113 15.8505L7.06047 16.1718C7.13257 16.2202 7.20695 16.2481 7.28362 16.2557C7.3603 16.2632 7.43357 16.2494 7.50345 16.2142C7.57333 16.179 7.63494 16.1213 7.68828 16.0411C7.72536 15.9853 7.75139 15.9292 7.76638 15.8728C7.78202 15.8154 7.78628 15.7602 7.77917 15.7074C7.77108 15.6539 7.7513 15.6052 7.71981 15.5615L8.21159 14.8219C8.35056 14.9518 8.44598 15.1028 8.49784 15.2747C8.54873 15.446 8.5538 15.6312 8.51305 15.8302C8.47197 16.0275 8.38215 16.2304 8.2436 16.4388Z" fill="black"/>
<path d="M9.89178 14.1537C9.78108 14.2862 9.66165 14.3852 9.53348 14.4507C9.40516 14.5146 9.27249 14.5379 9.13545 14.5207C8.99842 14.5036 8.86125 14.4371 8.72395 14.3214C8.61088 14.2262 8.5306 14.1255 8.48311 14.0195C8.43473 13.9127 8.41396 13.8031 8.42079 13.6906C8.42763 13.5781 8.45599 13.4646 8.50588 13.35C8.55653 13.2345 8.62262 13.1197 8.70415 13.0057C8.79233 12.8819 8.8595 12.7795 8.90567 12.6987C8.9517 12.6161 8.97623 12.5493 8.97926 12.4981C8.98139 12.4461 8.96271 12.4035 8.92322 12.3702L8.91784 12.3657C8.864 12.3203 8.8054 12.3063 8.74204 12.3235C8.67868 12.3408 8.61989 12.3819 8.56567 12.4467C8.50618 12.5179 8.47331 12.5893 8.46707 12.6608C8.46068 12.7307 8.48558 12.7969 8.54176 12.8596L7.96793 13.5463C7.84982 13.4314 7.76757 13.2938 7.72117 13.1334C7.67463 12.9713 7.67711 12.7945 7.72862 12.6029C7.77922 12.4106 7.89075 12.2113 8.0632 12.005C8.18746 11.8563 8.31641 11.7377 8.45006 11.6491C8.58281 11.5598 8.71479 11.4998 8.84599 11.4691C8.97629 11.4376 9.10079 11.435 9.2195 11.4613C9.33806 11.4859 9.44535 11.5387 9.54137 11.6196L10.9574 12.8127L10.3746 13.5102L10.0838 13.2652L10.0703 13.2814C10.1128 13.3879 10.133 13.4909 10.1309 13.5904C10.1295 13.6891 10.1079 13.7853 10.0662 13.8792C10.0252 13.9721 9.96709 14.0636 9.89178 14.1537ZM9.62668 13.5158C9.67412 13.459 9.70688 13.396 9.72497 13.3268C9.74381 13.2567 9.74442 13.1873 9.72681 13.1187C9.70919 13.0501 9.66898 12.9894 9.60616 12.9364L9.43386 12.7913C9.42537 12.8179 9.4153 12.8455 9.40366 12.8741C9.39276 12.9018 9.37991 12.9309 9.36511 12.9614C9.35106 12.991 9.33505 13.022 9.31709 13.0545C9.29988 13.0861 9.2811 13.1186 9.26073 13.1521C9.22151 13.2174 9.19678 13.2772 9.18655 13.3315C9.17617 13.3842 9.17825 13.432 9.19281 13.475C9.20721 13.5163 9.23237 13.5521 9.26826 13.5823C9.32569 13.6307 9.38661 13.6475 9.45101 13.6326C9.51541 13.6178 9.57396 13.5788 9.62668 13.5158Z" fill="black"/>
<path d="M10.4383 9.49967L10.9335 10.0005L9.67152 11.2585L9.1763 10.7577L10.4383 9.49967ZM8.96513 10.0532L9.65351 9.36705L11.3991 11.1326C11.4256 11.1593 11.4524 11.1773 11.4797 11.1865C11.5062 11.1949 11.5335 11.1942 11.5617 11.1843C11.5891 11.1736 11.6178 11.1533 11.6477 11.1235C11.6685 11.1028 11.6901 11.0763 11.7126 11.0439C11.7359 11.0107 11.7526 10.9858 11.7626 10.9692L12.3427 11.3556C12.321 11.3955 12.2881 11.4506 12.2439 11.5212C12.2006 11.5909 12.1419 11.6668 12.0679 11.7489C11.9182 11.9147 11.7695 12.0306 11.6218 12.0966C11.4733 12.1617 11.3279 12.1766 11.1855 12.1411C11.0431 12.1057 10.9064 12.0199 10.7751 11.8839L8.96513 10.0532Z" fill="black"/>
<path d="M13.8158 10.1788C13.5887 10.3645 13.3577 10.4784 13.1228 10.5203C12.8871 10.5614 12.6603 10.536 12.4423 10.4442C12.2236 10.3516 12.0269 10.1976 11.8523 9.98238C11.6777 9.76715 11.5676 9.54308 11.5222 9.31017C11.4761 9.07635 11.4972 8.84817 11.5856 8.62565C11.6733 8.40222 11.8307 8.19764 12.0577 8.01192C12.2848 7.82619 12.5161 7.71282 12.7518 7.67178C12.9867 7.62983 13.2135 7.6552 13.4323 7.74787C13.6503 7.83963 13.8466 7.99313 14.0212 8.20836C14.1958 8.42359 14.3062 8.64812 14.3524 8.88194C14.3978 9.11485 14.3766 9.34303 14.289 9.56646C14.2006 9.78898 14.0428 9.99311 13.8158 10.1788ZM13.3684 9.61623C13.432 9.56422 13.4695 9.49785 13.4811 9.4171C13.4926 9.33634 13.4789 9.2459 13.44 9.14575C13.401 9.04561 13.3372 8.94081 13.2484 8.83137C13.1588 8.72102 13.0695 8.63703 12.9805 8.5794C12.8907 8.52086 12.8052 8.4891 12.7241 8.48412C12.643 8.47914 12.5707 8.50266 12.5071 8.55466C12.4399 8.60963 12.3996 8.67824 12.3863 8.76048C12.3729 8.84271 12.3857 8.9339 12.4246 9.03405C12.4628 9.13328 12.5267 9.23807 12.6162 9.34843C12.705 9.45787 12.7943 9.54186 12.8841 9.6004C12.9739 9.65894 13.0603 9.68996 13.1432 9.69345C13.2261 9.69694 13.3012 9.6712 13.3684 9.61623Z" fill="black"/>
<path d="M15.4609 8.82288L13.9787 6.55781L14.7658 6.03851L15.0476 6.46911L15.0711 6.45361C15.0079 6.26722 14.9968 6.10777 15.0377 5.97526C15.0795 5.8421 15.1606 5.7358 15.281 5.65636C15.3162 5.63311 15.3529 5.61313 15.3911 5.59642C15.4295 5.57808 15.4681 5.56317 15.5069 5.55169L15.9614 6.24625C15.9122 6.25897 15.856 6.28126 15.7928 6.31314C15.7296 6.34501 15.6769 6.37483 15.6348 6.4026C15.5555 6.45492 15.4959 6.52026 15.4561 6.59862C15.4166 6.67535 15.4 6.7581 15.4062 6.84689C15.4118 6.93469 15.4429 7.02184 15.4995 7.10836L16.2715 8.28808L15.4609 8.82288Z" fill="black"/>
<path d="M19.411 4.48182L19.728 5.14326L18.2081 5.87775L17.8911 5.21631L19.411 4.48182Z" fill="black"/>
<path d="M22.0767 5.29821L21.0305 1.84033L21.9585 1.55726L22.3569 2.87423L22.3704 2.87012C22.3774 2.77207 22.4024 2.67655 22.4453 2.58355C22.4878 2.48943 22.5506 2.40572 22.6337 2.33242C22.7165 2.258 22.8217 2.2013 22.9495 2.16232C23.1199 2.11036 23.2956 2.10655 23.4768 2.15088C23.659 2.19488 23.828 2.30011 23.9836 2.46656C24.1404 2.63267 24.2661 2.87219 24.3608 3.18511C24.4514 3.48452 24.4799 3.74691 24.4465 3.97227C24.4142 4.19728 24.3354 4.38178 24.21 4.52576C24.0857 4.6694 23.9317 4.76926 23.7479 4.82532C23.6268 4.86225 23.5127 4.87554 23.4055 4.8652C23.2991 4.8534 23.2019 4.82342 23.1139 4.77527C23.0267 4.72565 22.9518 4.66241 22.8894 4.58556L22.8692 4.59171L22.998 5.01719L22.0767 5.29821ZM22.5922 3.72459C22.6303 3.85066 22.6796 3.95488 22.74 4.03727C22.8012 4.11819 22.8698 4.17474 22.9456 4.20694C23.0222 4.23766 23.1032 4.24003 23.1883 4.21405C23.2735 4.18806 23.3385 4.14181 23.3832 4.07529C23.4288 4.0073 23.4534 3.92294 23.4572 3.82219C23.4618 3.71998 23.4447 3.60471 23.4059 3.47639C23.367 3.34807 23.3176 3.24328 23.2575 3.16202C23.1982 3.07929 23.1309 3.02296 23.0558 2.99302C22.9814 2.96161 22.9016 2.9589 22.8164 2.98488C22.7313 3.01086 22.6653 3.05802 22.6187 3.12635C22.5728 3.19321 22.547 3.27792 22.5413 3.38048C22.5364 3.48156 22.5534 3.59627 22.5922 3.72459Z" fill="black"/>
<path d="M25.9973 5.24113C25.8877 5.2608 25.7818 5.27086 25.6796 5.2713C25.5775 5.27289 25.4864 5.26595 25.4063 5.25046L25.4926 4.53225C25.5759 4.54596 25.6506 4.55107 25.7166 4.54758C25.7838 4.54388 25.8389 4.52921 25.8819 4.50355C25.9261 4.47769 25.9542 4.43858 25.9663 4.38621L25.9784 4.33385L24.5481 1.71533L25.5443 1.53641L26.3025 3.30761L26.3302 3.30264L26.4368 1.37612L27.4399 1.19596L26.9863 4.26039C26.9641 4.41616 26.9173 4.56081 26.8458 4.69434C26.7758 4.82882 26.6725 4.94358 26.5359 5.03862C26.3993 5.13366 26.2198 5.20116 25.9973 5.24113Z" fill="black"/>
<path d="M29.9223 0.814955L29.9163 0.0244141L33.0436 0.000208494L33.0497 0.79075L31.9674 0.799126L31.9892 3.62249L31.0264 3.62994L31.0046 0.806578L29.9223 0.814955Z" fill="black"/>
<path d="M33.9215 4.70631C33.8109 4.69385 33.7066 4.6732 33.6084 4.64438C33.5102 4.61673 33.4248 4.58403 33.3524 4.54628L33.6388 3.88247C33.7148 3.91945 33.785 3.9457 33.8492 3.96123C33.9147 3.9769 33.9716 3.97858 34.0202 3.96629C34.0699 3.95414 34.1079 3.92469 34.1344 3.87795L34.1608 3.83121L33.5324 0.912109L34.5381 1.02547L34.7625 2.94014L34.7905 2.94329L35.4391 1.12701L36.4518 1.24116L35.1478 4.04899C35.0823 4.19196 34.9964 4.31723 34.8901 4.42481C34.7848 4.5337 34.6532 4.61416 34.4953 4.66621C34.3374 4.71826 34.1462 4.73163 33.9215 4.70631Z" fill="black"/>
<path d="M38.4436 0.710268L37.7422 4.25496L36.7909 4.0652L37.4923 0.520508L38.4436 0.710268Z" fill="black"/>
<path d="M39.3248 4.69829C39.0479 4.61839 38.8244 4.49639 38.6544 4.33229C38.4859 4.16739 38.3763 3.96929 38.3254 3.73798C38.2761 3.50586 38.2915 3.24961 38.3718 2.9692C38.4488 2.7001 38.5701 2.48052 38.7358 2.31044C38.9015 2.14036 39.0988 2.02778 39.3279 1.97268C39.5569 1.91759 39.8054 1.92869 40.0734 2.006C40.2692 2.06251 40.4378 2.1442 40.5791 2.25105C40.7204 2.3579 40.8306 2.4858 40.9099 2.63474C40.9894 2.78254 41.036 2.94775 41.0496 3.13037C41.0631 3.31299 41.0403 3.50775 40.9811 3.71466L40.919 3.93175L38.602 3.2633L38.7496 2.74772L40.2086 3.16867C40.2289 3.09372 40.2285 3.02262 40.2075 2.95537C40.188 2.88731 40.1518 2.82852 40.0989 2.779C40.0475 2.72867 39.983 2.6923 39.9053 2.66989C39.8299 2.64812 39.756 2.64454 39.6835 2.65914C39.6114 2.67261 39.5481 2.70209 39.4937 2.74758C39.4404 2.7934 39.4017 2.85386 39.3778 2.92896L39.2186 3.48525C39.1947 3.56892 39.1908 3.64857 39.2069 3.72422C39.223 3.79987 39.2584 3.86577 39.313 3.92192C39.3676 3.97807 39.4411 4.01946 39.5334 4.04609C39.5976 4.06461 39.6587 4.07245 39.7168 4.06963C39.776 4.06713 39.8296 4.05444 39.8776 4.03156C39.9259 4.00756 39.966 3.97384 39.998 3.93042L40.8491 4.17597C40.768 4.34843 40.6538 4.48562 40.5064 4.58753C40.3594 4.68831 40.1853 4.74946 39.9841 4.77099C39.7844 4.79171 39.5646 4.76748 39.3248 4.69829Z" fill="black"/>
<path d="M41.294 5.2544L42.2989 2.73881L43.173 3.09084L42.982 3.56906L43.0081 3.57957C43.1244 3.42108 43.2484 3.32082 43.38 3.27877C43.5128 3.23717 43.646 3.24329 43.7797 3.29714C43.8188 3.31291 43.8561 3.33173 43.8916 3.3536C43.9285 3.37482 43.9628 3.39812 43.9943 3.42348L43.6861 4.19487C43.6477 4.16163 43.5973 4.12805 43.5352 4.09414C43.473 4.06023 43.4185 4.03386 43.3718 4.01503C43.2837 3.97956 43.1963 3.9678 43.1095 3.97974C43.0242 3.99102 42.947 4.0246 42.878 4.08046C42.8095 4.13523 42.756 4.21065 42.7176 4.30673L42.1942 5.61694L41.294 5.2544Z" fill="black"/>
<path d="M47.4416 5.18203L47.0952 5.79623L45.5478 4.91658L45.8941 4.30238L47.4416 5.18203ZM46.5125 3.90767L47.3565 4.38748L46.1357 6.55256C46.1172 6.58532 46.1073 6.61615 46.1058 6.64504C46.1049 6.67291 46.113 6.69914 46.1301 6.72373C46.1477 6.7473 46.1749 6.76951 46.2116 6.79037C46.2371 6.80486 46.2684 6.81859 46.3055 6.83157C46.3436 6.84513 46.372 6.8545 46.3906 6.85968L46.177 7.525C46.1329 7.51482 46.0711 7.49792 45.9915 7.47432C45.913 7.45129 45.8244 7.4151 45.7256 7.36575C45.5262 7.26589 45.3749 7.1535 45.2716 7.02858C45.169 6.90265 45.1154 6.76608 45.1109 6.61888C45.1064 6.47168 45.1517 6.31625 45.2466 6.1526L46.5125 3.90767Z" fill="black"/>
<path d="M48.5176 7.27585L47.638 8.51845L46.8474 7.95421L48.9325 5.00879L49.6944 5.55258L48.8759 6.70889L48.8988 6.72524C49.0482 6.61973 49.2085 6.5689 49.3797 6.57273C49.5516 6.5756 49.7187 6.63496 49.881 6.75081C50.0366 6.86188 50.1466 6.99378 50.211 7.14651C50.2763 7.29991 50.2963 7.46142 50.2711 7.63104C50.2468 7.80134 50.1772 7.96669 50.0622 8.12709L49.0645 9.53652L48.2739 8.97229L49.1536 7.72969C49.2319 7.62106 49.2654 7.51583 49.2542 7.41399C49.2439 7.31282 49.1881 7.22612 49.0869 7.15389C49.0229 7.10823 48.9564 7.08241 48.8873 7.07642C48.8199 7.07015 48.7542 7.08385 48.6901 7.1175C48.6277 7.15088 48.5702 7.20366 48.5176 7.27585Z" fill="black"/>
<path d="M50.4542 10.7906C50.2404 10.5966 50.093 10.3885 50.012 10.1661C49.9327 9.9436 49.9208 9.71727 49.9763 9.48706C50.0335 9.25678 50.1595 9.03339 50.3542 8.81689C50.5411 8.60912 50.7461 8.46538 50.9693 8.38567C51.1926 8.30596 51.4191 8.29188 51.649 8.34342C51.8789 8.39496 52.0973 8.51454 52.3042 8.70217C52.4555 8.83935 52.5712 8.98709 52.6514 9.14539C52.7316 9.30369 52.7747 9.46721 52.7808 9.63597C52.7876 9.80385 52.7572 9.9728 52.6895 10.1428C52.6218 10.3129 52.5161 10.4777 52.3725 10.6375L52.2217 10.8051L50.4324 9.18266L50.7905 8.78458L51.9173 9.8063C51.9682 9.7479 51.999 9.68386 52.0095 9.6142C52.0218 9.54445 52.015 9.47567 51.9891 9.40787C51.9649 9.33998 51.9229 9.27883 51.8629 9.22444C51.8046 9.17162 51.7398 9.13579 51.6683 9.11696C51.5976 9.09725 51.5279 9.09582 51.4591 9.11267C51.3911 9.1303 51.33 9.16757 51.2756 9.22449L50.8893 9.654C50.8312 9.7186 50.7929 9.78843 50.7743 9.8635C50.7557 9.93858 50.7586 10.0134 50.7832 10.0879C50.8077 10.1624 50.8556 10.232 50.9269 10.2967C50.9764 10.3416 51.0279 10.3756 51.0813 10.3987C51.1356 10.4226 51.1893 10.4348 51.2425 10.4354C51.2964 10.4352 51.3472 10.4226 51.3948 10.3977L52.0521 10.9937C51.9039 11.1129 51.7413 11.1857 51.5643 11.2123C51.3881 11.2379 51.2049 11.2161 51.0148 11.1467C50.8263 11.0772 50.6394 10.9585 50.4542 10.7906Z" fill="black"/>
<path d="M53.7253 14.2404C53.5437 14.0097 53.4337 13.7761 53.3953 13.5396C53.3579 13.3024 53.3864 13.0751 53.481 12.8576C53.5764 12.6393 53.7326 12.4441 53.9495 12.2719C54.1663 12.0998 54.3911 11.9926 54.6236 11.9504C54.8572 11.9075 55.0841 11.932 55.3044 12.024C55.5256 12.1153 55.7271 12.2763 55.9087 12.507C56.0729 12.7156 56.1773 12.9259 56.2218 13.1379C56.268 13.3502 56.2557 13.5527 56.1849 13.7453C56.115 13.9373 55.9886 14.1066 55.8055 14.2535L55.2475 13.5448C55.3507 13.4464 55.4098 13.347 55.4248 13.2466C55.4415 13.1464 55.4164 13.0538 55.3495 12.9689C55.2972 12.9025 55.2321 12.8597 55.1543 12.8405C55.0774 12.8206 54.9894 12.8274 54.8905 12.861C54.7924 12.8939 54.6855 12.9563 54.5697 13.0482C54.4539 13.1401 54.3683 13.2306 54.3129 13.3195C54.2584 13.4078 54.2315 13.4921 54.2322 13.5726C54.2337 13.6523 54.2607 13.7254 54.313 13.7918C54.3573 13.8481 54.4094 13.8877 54.4693 13.9107C54.5301 13.9329 54.5963 13.9373 54.6679 13.9239C54.7412 13.9108 54.8167 13.8778 54.8946 13.8249L55.4526 14.5336C55.2639 14.6789 55.0675 14.7651 54.8633 14.7923C54.6601 14.8186 54.4609 14.7856 54.2656 14.6932C54.0711 14.6017 53.891 14.4507 53.7253 14.2404Z" fill="black"/>
<path d="M54.9527 15.7781L57.2244 14.3149L57.733 15.111L57.3011 15.3892L57.3163 15.4129C57.5026 15.3517 57.6615 15.3422 57.793 15.3847C57.9252 15.4282 58.0302 15.5108 58.108 15.6326C58.1307 15.6682 58.1502 15.7053 58.1664 15.7438C58.1843 15.7826 58.1987 15.8215 58.2097 15.8605L57.5131 16.3092C57.501 16.2597 57.4794 16.203 57.4483 16.1392C57.4173 16.0753 57.3882 16.0221 57.361 15.9795C57.3097 15.8993 57.2453 15.8388 57.1677 15.7979C57.0917 15.7574 57.0095 15.7398 56.921 15.7451C56.8335 15.7497 56.7464 15.78 56.6596 15.8359L55.4764 16.5979L54.9527 15.7781Z" fill="black"/>
<path d="M56.8247 19.0233C56.6949 18.7649 56.6322 18.5174 56.6367 18.2806C56.6426 18.0444 56.7129 17.829 56.8473 17.6344C56.9834 17.4404 57.1811 17.2776 57.4405 17.1463C57.6894 17.0202 57.9323 16.9605 58.1691 16.9671C58.4059 16.9736 58.6223 17.0426 58.8182 17.174C59.014 17.3053 59.1747 17.496 59.3003 17.746C59.3921 17.9288 59.447 18.1085 59.4649 18.2852C59.4828 18.4619 59.4642 18.63 59.4093 18.7896C59.3553 18.9487 59.2663 19.0952 59.1421 19.2293C59.0179 19.3633 58.86 19.4788 58.6686 19.5757L58.4678 19.6774L57.3821 17.5158L57.859 17.2743L58.5427 18.6355C58.6113 18.5995 58.6629 18.551 58.6978 18.4898C58.7343 18.4292 58.7527 18.3626 58.7529 18.29C58.7548 18.2179 58.7375 18.1456 58.7011 18.0732C58.6657 18.0028 58.6181 17.9459 58.5582 17.9024C58.4994 17.8584 58.4349 17.8318 58.3647 17.8226C58.2949 17.8144 58.2245 17.827 58.1534 17.8604L57.6388 18.121C57.5614 18.1602 57.5006 18.2114 57.4563 18.2747C57.4119 18.338 57.3878 18.4088 57.3839 18.4872C57.38 18.5656 57.3997 18.6479 57.4429 18.734C57.473 18.7938 57.5088 18.8442 57.5503 18.8851C57.5924 18.9271 57.6381 18.9579 57.6874 18.9778C57.7378 18.9971 57.7896 19.0037 57.8431 18.9978L58.2419 19.7918C58.0608 19.8493 57.883 19.8583 57.7084 19.8189C57.5349 19.779 57.3719 19.6922 57.2195 19.5586C57.0687 19.4255 56.9371 19.247 56.8247 19.0233Z" fill="black"/>
<path d="M57.9575 21.5036C57.897 21.3416 57.8699 21.1885 57.876 21.0443C57.8836 20.9007 57.9286 20.7732 58.0108 20.6618C58.093 20.5504 58.218 20.4631 58.3858 20.3998C58.524 20.3478 58.6508 20.327 58.7661 20.3376C58.8825 20.3478 58.9878 20.3835 59.082 20.4448C59.1762 20.506 59.2607 20.5866 59.3356 20.6866C59.4109 20.7876 59.478 20.9018 59.5368 21.0292C59.6009 21.1671 59.6567 21.2762 59.7041 21.3563C59.7531 21.4371 59.799 21.4914 59.842 21.5192C59.886 21.5466 59.9321 21.5512 59.9804 21.533L59.9869 21.5306C60.0527 21.5058 60.0937 21.4614 60.1099 21.3975C60.126 21.3337 60.1193 21.2621 60.0897 21.1828C60.0572 21.0957 60.0114 21.0319 59.9525 20.9913C59.895 20.9514 59.8253 20.9406 59.7433 20.9589L59.4297 20.1197C59.5873 20.0728 59.7471 20.0685 59.909 20.1068C60.0725 20.1457 60.2246 20.2348 60.3654 20.374C60.5074 20.5127 60.6255 20.7082 60.7197 20.9605C60.7877 21.1422 60.8272 21.3133 60.8383 21.4737C60.8506 21.6336 60.8378 21.7786 60.8 21.9084C60.7633 22.0378 60.7044 22.148 60.6232 22.2389C60.5436 22.3304 60.4451 22.3983 60.3277 22.4425L58.5971 23.0945L58.2786 22.242L58.6339 22.1082L58.6265 22.0883C58.5132 22.0732 58.414 22.0403 58.3287 21.9895C58.2438 21.9398 58.1709 21.8736 58.11 21.791C58.0495 21.7095 57.9987 21.6137 57.9575 21.5036ZM58.6412 21.5853C58.6671 21.6546 58.7056 21.7143 58.7568 21.7641C58.8083 21.815 58.8682 21.8496 58.9363 21.8679C59.0045 21.8863 59.0769 21.8809 59.1537 21.852L59.3643 21.7727C59.3454 21.7522 59.3264 21.7298 59.3073 21.7056C59.2886 21.6824 59.2697 21.6569 59.2505 21.629C59.2317 21.6021 59.2127 21.5729 59.1933 21.5412C59.1744 21.5106 59.1554 21.4782 59.1363 21.4439C59.099 21.3776 59.0593 21.3266 59.0172 21.2909C58.9766 21.2559 58.9341 21.2343 58.8897 21.2259C58.8468 21.2182 58.8034 21.2226 58.7595 21.2391C58.6893 21.2655 58.6449 21.3106 58.6261 21.3742C58.6073 21.4378 58.6123 21.5082 58.6412 21.5853Z" fill="black"/>
<path d="M61.7471 24.372L61.0688 24.5565L60.6036 22.8329L61.2819 22.6483L61.7471 24.372ZM61.9961 22.8123L62.2498 23.7525L59.8587 24.4031C59.8225 24.413 59.7937 24.4275 59.7722 24.4468C59.7518 24.4657 59.7389 24.49 59.7335 24.5195C59.7293 24.5487 59.7326 24.5837 59.7437 24.6246C59.7513 24.6529 59.7636 24.685 59.7805 24.7206C59.7977 24.7573 59.811 24.7842 59.8205 24.8011L59.1992 25.1164C59.1755 25.0778 59.144 25.0218 59.1047 24.9483C59.0658 24.8761 59.0291 24.7873 58.9946 24.6821C58.9251 24.4695 58.8983 24.2823 58.9141 24.1208C58.9311 23.9589 58.9902 23.8247 59.0912 23.7179C59.1923 23.6112 59.3341 23.5342 59.5167 23.487L61.9961 22.8123Z" fill="black"/>
<path d="M59.4946 27.0173C59.4463 26.7272 59.4622 26.4693 59.5422 26.2435C59.6234 26.0176 59.7576 25.8323 59.9449 25.6876C60.1334 25.5427 60.364 25.4473 60.6366 25.4016C60.9093 25.3559 61.1576 25.3709 61.3816 25.4466C61.6067 25.5222 61.7937 25.6536 61.9424 25.841C62.0923 26.0281 62.1914 26.2668 62.2396 26.5568C62.2879 26.8469 62.2715 27.1049 62.1903 27.3309C62.1103 27.5566 61.976 27.7419 61.7876 27.8868C61.6002 28.0315 61.3703 28.1268 61.0976 28.1725C60.8249 28.2182 60.576 28.2033 60.3509 28.1278C60.1269 28.052 59.94 27.9206 59.7901 27.7334C59.6413 27.5461 59.5428 27.3073 59.4946 27.0173ZM60.2028 26.9056C60.2163 26.9869 60.2551 27.0525 60.3193 27.1026C60.3834 27.1526 60.4685 27.1855 60.5744 27.2011C60.6803 27.2168 60.8026 27.2129 60.9412 27.1897C61.081 27.1662 61.1979 27.1299 61.2918 27.0808C61.387 27.0314 61.4567 26.9726 61.5012 26.9043C61.5456 26.8361 61.5611 26.7613 61.5476 26.6801C61.5333 26.5942 61.4939 26.5251 61.4294 26.4727C61.3648 26.4203 61.2796 26.3863 61.1737 26.3707C61.0689 26.3548 60.9467 26.3586 60.8069 26.3821C60.6682 26.4053 60.5514 26.4416 60.4562 26.491C60.3611 26.5403 60.2915 26.6003 60.2475 26.6709C60.2034 26.7415 60.1885 26.8198 60.2028 26.9056Z" fill="black"/>
<path d="M59.8481 29.1459L62.5417 28.9787L62.5998 29.9228L62.0878 29.9546L62.0895 29.9828C62.2819 30.0203 62.4253 30.0898 62.5195 30.1912C62.6139 30.2938 62.6655 30.4173 62.6744 30.5617C62.677 30.604 62.676 30.6459 62.6715 30.6874C62.6683 30.7301 62.662 30.7711 62.6527 30.8106L61.8267 30.8619C61.8401 30.8127 61.8488 30.7526 61.8526 30.6817C61.8565 30.6107 61.8568 30.55 61.8537 30.4995C61.8479 30.4044 61.821 30.32 61.773 30.2464C61.7263 30.1738 61.663 30.1182 61.5832 30.0796C61.5045 30.0409 61.4138 30.0247 61.3109 30.0311L59.9079 30.1181L59.8481 29.1459Z" fill="black"/>
</g>
</svg>
